<svg width="16" height="11" viewBox="0 0 16 11" fill="none" xmlns="http://www.w3.org/2000/svg">
<path fill-rule="evenodd" clip-rule="evenodd" d="M15.335 5.10765C15.555 5.32431 15.555 5.67652 15.335 5.89318L10.8222 10.3375C10.6022 10.5542 10.2446 10.5542 10.0246 10.3375C9.80462 10.1208 9.80462 9.76863 10.0246 9.55197L13.5739 6.0554L1.06409 6.0554C0.752714 6.0554 0.5 5.80763 0.5 5.49986C0.5 5.1932 0.752714 4.94432 1.06409 4.94432L13.5739 4.94432L10.0246 1.44886C9.80462 1.2322 9.80462 0.879989 10.0246 0.663329C10.1352 0.554443 10.2796 0.5 10.4229 0.5C10.5673 0.5 10.7117 0.554443 10.8222 0.663329L15.335 5.10765Z" fill="black"/>
</svg>
