<svg width="30" height="30" viewBox="0 0 30 30" fill="none" xmlns="http://www.w3.org/2000/svg">
<path d="M11.3379 17.4316C10.5293 17.4316 9.87891 16.7812 9.87891 15.9902C9.87891 15.1816 10.5293 14.5312 11.3379 14.5312C12.1348 14.5312 12.7793 15.1816 12.7793 15.9902C12.7793 16.7871 12.1289 17.4316 11.3379 17.4316ZM29.0625 14.5312C29.0625 22.5586 22.5586 29.0625 14.5312 29.0625C6.50391 29.0625 0 22.5586 0 14.5312C0 6.50391 6.50391 0 14.5312 0C22.5586 0 29.0625 6.50391 29.0625 14.5312ZM21.3105 12.1172C20.7598 12.1172 20.2734 12.3457 19.916 12.7031C18.6035 11.7949 16.834 11.209 14.8711 11.1445L15.8906 6.55664L19.1367 7.28906C19.1367 8.08594 19.7871 8.73047 20.5781 8.73047C21.3867 8.73047 22.0371 8.06836 22.0371 7.27148C22.0371 6.47461 21.3867 5.8125 20.5781 5.8125C20.0098 5.8125 19.5234 6.15234 19.2832 6.62109L15.6973 5.82422C15.5215 5.77734 15.3398 5.90625 15.293 6.08203L14.1738 11.1445C12.2285 11.2266 10.4766 11.8066 9.16406 12.7148C8.80664 12.3398 8.30273 12.1172 7.75195 12.1172C5.70703 12.1172 5.03906 14.8652 6.9082 15.7969C6.84375 16.0898 6.80859 16.3945 6.80859 16.7051C6.80859 19.7871 10.2773 22.2832 14.543 22.2832C18.8262 22.2832 22.2949 19.7871 22.2949 16.7051C22.2949 16.3945 22.2598 16.0723 22.1836 15.7793C24.0176 14.8418 23.3438 12.1172 21.3105 12.1172V12.1172ZM17.2734 18.9258C16.207 19.9922 12.8145 19.9746 11.7891 18.9258C11.6602 18.7969 11.4316 18.7969 11.3027 18.9258C11.1562 19.0723 11.1562 19.3008 11.3027 19.4297C12.6387 20.7656 16.418 20.7656 17.7598 19.4297C17.9062 19.3008 17.9062 19.0723 17.7598 18.9258C17.6309 18.7969 17.4023 18.7969 17.2734 18.9258ZM17.7246 14.5312C16.9277 14.5312 16.2832 15.1816 16.2832 15.9902C16.2832 16.7871 16.9336 17.4316 17.7246 17.4316C18.5332 17.4316 19.1836 16.7812 19.1836 15.9902C19.1836 15.1816 18.5391 14.5312 17.7246 14.5312V14.5312Z" fill="black"/>
</svg>
