<svg width="42" height="29" viewBox="0 0 42 29" fill="none" xmlns="http://www.w3.org/2000/svg">
<path d="M40.5643 4.53752C40.0878 2.75145 38.6839 1.3448 36.9014 0.867432C33.6705 0 20.715 0 20.715 0C20.715 0 7.75954 0 4.52857 0.867432C2.74607 1.34488 1.3422 2.75145 0.86572 4.53752C0 7.77487 0 14.5293 0 14.5293C0 14.5293 0 21.2837 0.86572 24.5211C1.3422 26.3072 2.74607 27.6552 4.52857 28.1326C7.75954 29 20.715 29 20.715 29C20.715 29 33.6705 29 36.9014 28.1326C38.6839 27.6552 40.0878 26.3072 40.5643 24.5211C41.43 21.2837 41.43 14.5293 41.43 14.5293C41.43 14.5293 41.43 7.77487 40.5643 4.53752V4.53752ZM16.4778 20.6618V8.39678L27.3061 14.5295L16.4778 20.6618V20.6618Z" fill="black"/>
</svg>
